<svg xmlns="http://www.w3.org/2000/svg" xmlns:xlink="http://www.w3.org/1999/xlink" version="1.1" x="0px" y="0px" viewBox="0 0 90 90" enable-background="new 0 0 90 90" xml:space="preserve"><path fill="#000000" d="M45,5.5c21.78,0,39.5,17.72,39.5,39.5S66.78,84.5,45,84.5S5.5,66.78,5.5,45S23.22,5.5,45,5.5 M45,2.5  C21.527,2.5,2.5,21.528,2.5,45c0,23.473,19.027,42.5,42.5,42.5c23.472,0,42.5-19.027,42.5-42.5C87.5,21.528,68.472,2.5,45,2.5  L45,2.5z"></path><path fill="#000000" d="M45.323,53.851L45.323,53.851c-2.18,0-4.144-1.352-5.837-4.016c-0.444-0.699-0.238-1.626,0.461-2.07  c0.701-0.445,1.626-0.237,2.071,0.461c0.761,1.197,1.952,2.625,3.305,2.625c1.624,0,3.225-1.944,3.657-2.625  c0.443-0.698,1.369-0.907,2.07-0.461c0.699,0.444,0.905,1.371,0.461,2.07C51.251,50.246,48.858,53.851,45.323,53.851z"></path><path fill="#000000" d="M44.89,69.175c-2.971,0-6.377-0.443-9.917-1.771c-0.775-0.291-1.168-1.155-0.877-1.931  c0.291-0.776,1.157-1.17,1.931-0.878c9.335,3.499,17.811,0.055,17.895,0.02c0.764-0.317,1.643,0.043,1.962,0.808  c0.318,0.765-0.043,1.644-0.808,1.962C54.818,67.492,50.68,69.175,44.89,69.175z"></path><path fill="none" d="M25.8,25.801c-1.607,0.826-2.633,2.065-2.633,3.45c0,1.385,1.026,2.625,2.634,3.451  c-0.66-0.977-1.051-2.166-1.051-3.451C24.75,27.965,25.141,26.777,25.8,25.801z"></path><path d="M30.464,26.118c-0.923-0.233-1.92-0.367-2.966-0.367s-2.043,0.133-2.966,0.367c-3.133,0.791-5.367,2.791-5.367,5.133  c0,2.343,2.235,4.343,5.37,5.134c0.922,0.232,1.918,0.366,2.963,0.366s2.041-0.133,2.963-0.366c3.134-0.791,5.37-2.791,5.37-5.134  C35.832,28.909,33.597,26.909,30.464,26.118z M20.166,31.251c0-1.384,1.025-2.624,2.633-3.45c-0.659,0.976-1.05,2.164-1.05,3.449  c0,1.286,0.391,2.475,1.051,3.451C21.191,33.876,20.166,32.636,20.166,31.251z M32.197,34.702c0.66-0.977,1.051-2.166,1.051-3.451  c0-1.285-0.391-2.473-1.05-3.449c1.607,0.826,2.633,2.065,2.633,3.45C34.832,32.636,33.806,33.876,32.197,34.702z"></path><path d="M64.548,26.118c-0.923-0.233-1.92-0.367-2.966-0.367s-2.043,0.133-2.966,0.367c-3.133,0.791-5.367,2.791-5.367,5.133  c0,2.343,2.235,4.343,5.369,5.134c0.923,0.232,1.919,0.366,2.964,0.366s2.041-0.133,2.964-0.366  c3.134-0.791,5.369-2.791,5.369-5.134C69.915,28.909,67.681,26.909,64.548,26.118z M54.249,31.251c0-1.384,1.025-2.624,2.633-3.45  c-0.659,0.976-1.05,2.164-1.05,3.449c0,1.286,0.392,2.475,1.052,3.451C55.274,33.876,54.249,32.636,54.249,31.251z M66.28,34.702  c0.66-0.977,1.052-2.166,1.052-3.451c0-1.285-0.391-2.473-1.05-3.449c1.607,0.826,2.633,2.065,2.633,3.45  C68.915,32.636,67.89,33.876,66.28,34.702z"></path><circle cx="45.625" cy="56.625" r="0.625"></circle><circle cx="42.5" cy="57.75" r="0.5"></circle><circle cx="44.75" cy="58.625" r="0.375"></circle><circle cx="43.375" cy="60.625" r="0.375"></circle><circle cx="40.063" cy="61.437" r="0.812"></circle><circle cx="41.188" cy="56.312" r="0.312"></circle><circle cx="38.188" cy="58.812" r="0.562"></circle><ellipse cx="35.831" cy="59.188" rx="0" ry="0.188"></ellipse><circle cx="34.906" cy="61.842" r="0.406"></circle><circle cx="41.031" cy="59.344" r="0.156"></circle><circle cx="36.728" cy="57.521" r="0.897"></circle><circle cx="46.25" cy="61.625" r="0.625"></circle><circle cx="48.438" cy="59.438" r="0.438"></circle><circle cx="49.375" cy="58.25" r="0.5"></circle><circle cx="49.156" cy="56.719" r="0.719"></circle><circle cx="52.186" cy="58.189" r="0.439"></circle><circle cx="51.498" cy="60.498" r="0.248"></circle><circle cx="50.312" cy="63.188" r="0.938"></circle><circle cx="44.094" cy="72.094" r="0.344"></circle><circle cx="45.688" cy="72.312" r="0.562"></circle><circle cx="45.188" cy="73.938" r="0.438"></circle><circle cx="44.25" cy="74.875" r="0.5"></circle><circle cx="36.019" cy="75.938" r="0.188"></circle><circle cx="34.453" cy="75.328" r="0.453"></circle><circle cx="32.875" cy="74.188" r="0.25"></circle><circle cx="31.5" cy="72.125" r="0.375"></circle><circle cx="31" cy="71.125" r="0.5"></circle><circle cx="30.594" cy="65.531" r="0.406"></circle><circle cx="31.234" cy="63.828" r="0.641"></circle><circle cx="32.062" cy="62.811" r="0.562"></circle><circle cx="33.094" cy="60.967" r="0.469"></circle><circle cx="38.938" cy="76.875" r="0.75"></circle><circle cx="41.406" cy="75.75" r="0.375"></circle><circle cx="41.688" cy="79.625" r="0.5"></circle><circle cx="37.458" cy="80.854" r="0.73"></circle><circle cx="34.063" cy="79.625" r="0.5"></circle><circle cx="31.648" cy="79.539" r="0.414"></circle><circle cx="29.188" cy="67.149" r="0.312"></circle><circle cx="30.969" cy="60.967" r="0.469"></circle><circle cx="28.719" cy="62.311" r="0.469"></circle><circle cx="26.999" cy="64.327" r="0.499"></circle><circle cx="26.4" cy="66.974" r="0.599"></circle><circle cx="27.724" cy="69.9" r="0.725"></circle><circle cx="27.362" cy="72.862" r="0.363"></circle><circle cx="28.818" cy="65.9" r="0.369"></circle><circle cx="23.542" cy="60.25" r="0.375"></circle><circle cx="23.826" cy="62.969" r="0.659"></circle><circle cx="22.958" cy="65.41" r="0.583"></circle><circle cx="26.75" cy="61.217" r="0.25"></circle><circle cx="20.999" cy="59.999" r="0.499"></circle><circle cx="20.829" cy="63.299" r="0.329"></circle><circle cx="21.025" cy="68.65" r="0.525"></circle><circle cx="24.417" cy="73" r="0.5"></circle><circle cx="24.693" cy="67.849" r="0.276"></circle><circle cx="27.21" cy="75.539" r="0.211"></circle><circle cx="24.859" cy="76.5" r="0.375"></circle><circle cx="30.656" cy="74.406" r="0.469"></circle><circle cx="28.474" cy="78.375" r="0.75"></circle><circle cx="20.829" cy="73.204" r="0.329"></circle><circle cx="23.905" cy="70.263" r="0.363"></circle><circle cx="22.667" cy="74.667" r="0.292"></circle><circle cx="19.047" cy="65.953" r="0.422"></circle><circle cx="17.938" cy="64.315" r="0.688"></circle><circle cx="17.344" cy="68.719" r="0.594"></circle><circle cx="15.945" cy="63.508" r="0.32"></circle><circle cx="17.984" cy="61.387" r="0.641"></circle><circle cx="15.633" cy="60.008" r="0.633"></circle><circle cx="14.625" cy="63.154" r="0.375"></circle><circle cx="15.125" cy="66.77" r="0.5"></circle><circle cx="11.625" cy="60.873" r="0.375"></circle><circle cx="12.125" cy="58.021" r="0.5"></circle><circle cx="12.351" cy="64.476" r="0.351"></circle><circle cx="9.312" cy="57.688" r="0.438"></circle><circle cx="13.163" cy="60.47" r="0.462"></circle><circle cx="8.781" cy="55.156" r="0.531"></circle><circle cx="7.188" cy="52.188" r="0.438"></circle><circle cx="46.562" cy="75.271" r="0.312"></circle><circle cx="45.875" cy="76.876" r="0.375"></circle><circle cx="19.478" cy="70.693" r="0.431"></circle><circle cx="18.328" cy="72.484" r="0.391"></circle><circle cx="25.609" cy="78.75" r="0.375"></circle><circle cx="32.438" cy="76.688" r="0.563"></circle><circle cx="33.282" cy="81.865" r="0.281"></circle><circle cx="36.581" cy="78.75" r="0.375"></circle><circle cx="42.656" cy="77.156" r="0.469"></circle><circle cx="41.281" cy="82.271" r="0.406"></circle><circle cx="39.538" cy="82.964" r="0.286"></circle><circle cx="39.801" cy="79.388" r="0.263"></circle><circle cx="45.013" cy="79.013" r="0.638"></circle><circle cx="44.625" cy="81.959" r="0.375"></circle><circle cx="43.375" cy="83.053" r="0.375"></circle><circle cx="46.938" cy="72.125" r="0.375"></circle><circle cx="48.688" cy="71.875" r="0.25"></circle><circle cx="42.625" cy="72.062" r="0.438"></circle><circle cx="46.781" cy="74.156" r="0.219"></circle><circle cx="46.781" cy="77.407" r="0.531"></circle><circle cx="47.582" cy="78.738" r="0.8"></circle><circle cx="47.072" cy="81.364" r="0.51"></circle><circle cx="45.938" cy="82.99" r="0.312"></circle><circle cx="45.53" cy="83.958" r="0.53"></circle><circle cx="47.072" cy="75.469" r="0.51"></circle><circle cx="49.031" cy="75.615" r="0.344"></circle><circle cx="43.734" cy="62.609" r="0.359"></circle><circle cx="38.188" cy="61.811" r="0.562"></circle><circle cx="36.28" cy="59.823" r="0.448"></circle><circle cx="53.624" cy="60.199" r="0.376"></circle><circle cx="52.905" cy="57.344" r="0.719"></circle><circle cx="54.062" cy="62.465" r="0.438"></circle><circle cx="55.25" cy="58.771" r="0.75"></circle><circle cx="56.5" cy="61.5" r="0.5"></circle><circle cx="58.391" cy="65.016" r="0.516"></circle><circle cx="59.204" cy="70.922" r="0.296"></circle><circle cx="50.344" cy="77.156" r="0.469"></circle><circle cx="53.452" cy="77.235" r="0.548"></circle><circle cx="56.75" cy="75.521" r="0.25"></circle><circle cx="57.695" cy="74.633" r="0.695"></circle><circle cx="58.945" cy="73.055" r="0.555"></circle><circle cx="59.664" cy="69.11" r="0.461"></circle><circle cx="60.512" cy="66.762" r="0.387"></circle><circle cx="60.088" cy="65.25" r="0.424"></circle><circle cx="56.405" cy="78.344" r="0.406"></circle><circle cx="53.125" cy="80.15" r="0.5"></circle><circle cx="51.279" cy="82.426" r="0.467"></circle><circle cx="48.707" cy="82.75" r="0.325"></circle><circle cx="55.625" cy="76.875" r="0.375"></circle><circle cx="49.859" cy="80.438" r="0.484"></circle><circle cx="51.732" cy="79.203" r="0.453"></circle><circle cx="53.307" cy="82.275" r="0.402"></circle><circle cx="56.857" cy="81.007" r="0.357"></circle><circle cx="55.062" cy="79.95" r="0.562"></circle><circle cx="59.335" cy="80.578" r="0.428"></circle><circle cx="62.009" cy="80.084" r="0.428"></circle><circle cx="59.354" cy="79.159" r="0.409"></circle><circle cx="58.301" cy="77.855" r="0.606"></circle><circle cx="60.512" cy="76.887" r="0.387"></circle><circle cx="63.594" cy="77.594" r="0.344"></circle><circle cx="62.009" cy="78.771" r="0.428"></circle><circle cx="61.046" cy="75.493" r="0.535"></circle><circle cx="61.046" cy="74.034" r="0.535"></circle><circle cx="62.843" cy="73.906" r="0.407"></circle><circle cx="82.25" cy="52.375" r="0.625"></circle><circle cx="81.125" cy="55.125" r="0.5"></circle><circle cx="79.438" cy="59.062" r="0.438"></circle><circle cx="78.969" cy="61.094" r="0.469"></circle><circle cx="76.438" cy="63.217" r="0.438"></circle><circle cx="76.438" cy="64.753" r="0.438"></circle><circle cx="75.5" cy="67.649" r="0.5"></circle><circle cx="78.297" cy="63.641" r="0.672"></circle><circle cx="76.656" cy="59.219" r="0.219"></circle><circle cx="75.719" cy="57.344" r="0.719"></circle><circle cx="78.609" cy="56.312" r="0.312"></circle><circle cx="81.511" cy="58.136" r="0.386"></circle><circle cx="75.359" cy="62.17" r="0.359"></circle><circle cx="73.249" cy="61.999" r="0.374"></circle><circle cx="73.33" cy="64.954" r="0.455"></circle><circle cx="73.249" cy="67.836" r="0.374"></circle><circle cx="71.897" cy="70.297" r="0.397"></circle><circle cx="74.393" cy="70.179" r="0.607"></circle><circle cx="74.385" cy="59.6" r="0.6"></circle><circle cx="74.688" cy="64.623" r="0.296"></circle><circle cx="71.742" cy="64.07" r="0.242"></circle><circle cx="70.707" cy="66.786" r="0.793"></circle><circle cx="70.364" cy="68.66" r="0.45"></circle><circle cx="70.336" cy="71.641" r="0.422"></circle><circle cx="71.875" cy="72.5" r="0.375"></circle><circle cx="69.582" cy="74.367" r="0.332"></circle><circle cx="68.286" cy="76.151" r="0.536"></circle><circle cx="68.018" cy="74.175" r="0.268"></circle><circle cx="68.286" cy="72.661" r="0.536"></circle><circle cx="68.018" cy="71.055" r="0.268"></circle><circle cx="68.018" cy="69.84" r="0.268"></circle><circle cx="65.812" cy="73.938" r="0.438"></circle><circle cx="65.219" cy="75.553" r="0.594"></circle><circle cx="63.406" cy="76.688" r="0.562"></circle><circle cx="65.734" cy="77.766" r="0.516"></circle><circle cx="66.688" cy="77.125" r="0.438"></circle><circle cx="63.406" cy="71.885" r="0.562"></circle><circle cx="70.336" cy="62.951" r="0.422"></circle><circle cx="68" cy="64.078" r="0.25"></circle><circle cx="66.688" cy="66.431" r="0.438"></circle><circle cx="65.812" cy="67.899" r="0.438"></circle><circle cx="65.613" cy="69.506" r="0.395"></circle><circle cx="68.411" cy="67.873" r="0.411"></circle><circle cx="65.704" cy="71.547" r="0.329"></circle><circle cx="62.921" cy="69.203" r="0.485"></circle><circle cx="61.544" cy="64.125" r="0.497"></circle><circle cx="58.852" cy="61.709" r="0.461"></circle><circle cx="58.786" cy="59.984" r="0.485"></circle></svg>